<?xml version="1.0" standalone="no"?>
<!DOCTYPE svg PUBLIC "-//W3C//DTD SVG 20010904//EN"
 "http://www.w3.org/TR/2001/REC-SVG-20010904/DTD/svg10.dtd">
<svg version="1.0" xmlns="http://www.w3.org/2000/svg"
 width="500.000000pt" height="500.000000pt" viewBox="0 0 500.000000 500.000000"
 preserveAspectRatio="xMidYMid meet">

<g transform="translate(0.000000,500.000000) scale(0.100000,-0.100000)"
fill="#000000" stroke="none">
<path d="M1411 4203 c42 -160 125 -366 138 -344 6 8 -4 40 -24 85 -41 89 -105
260 -105 281 0 8 -4 15 -9 15 -6 0 -5 -15 0 -37z"/>
<path d="M1600 4141 c0 -60 15 -75 24 -23 9 57 7 72 -9 72 -11 0 -15 -12 -15
-49z"/>
<path d="M1320 3958 c0 -9 5 -20 11 -23 17 -11 20 0 4 21 -13 17 -14 17 -15 2z"/>
<path d="M1824 3883 c2 -16 5 -37 6 -48 2 -14 5 -12 10 10 12 48 11 65 -5 65
-12 0 -14 -7 -11 -27z"/>
<path d="M3874 3055 c0 -77 2 -107 3 -67 2 40 2 103 0 140 -2 37 -3 4 -3 -73z"/>
<path d="M944 2990 c0 -63 1 -89 3 -57 2 31 2 83 0 115 -2 31 -3 5 -3 -58z"/>
<path d="M2010 2726 c0 -2 8 -10 18 -17 15 -13 16 -12 3 4 -13 16 -21 21 -21
13z"/>
<path d="M2740 2689 c0 -5 5 -7 10 -4 6 3 10 8 10 11 0 2 -4 4 -10 4 -5 0 -10
-5 -10 -11z"/>
<path d="M1681 2614 c0 -11 3 -14 6 -6 3 7 2 16 -1 19 -3 4 -6 -2 -5 -13z"/>
<path d="M2889 2573 c-13 -16 -12 -17 4 -4 16 13 21 21 13 21 -2 0 -10 -8 -17
-17z"/>
<path d="M1121 2457 c-7 -9 -9 -31 -4 -63 l7 -49 8 59 c8 65 7 74 -11 53z"/>
<path d="M3700 2455 c0 -8 -4 -15 -9 -15 -10 0 -3 -77 10 -100 5 -9 9 13 9 58
0 39 -2 72 -5 72 -3 0 -5 -7 -5 -15z"/>
<path d="M2398 2283 c6 -2 18 -2 25 0 6 3 1 5 -13 5 -14 0 -19 -2 -12 -5z"/>
<path d="M3696 2073 c-15 -75 -17 -108 -7 -93 7 10 11 3 14 -30 2 -25 4 -1 5
53 2 98 -2 120 -12 70z"/>
<path d="M1120 2037 c0 -33 4 -57 10 -57 7 0 8 19 4 53 -9 70 -14 72 -14 4z"/>
</g>
</svg>
