<?xml version="1.0" standalone="no"?>
<!DOCTYPE svg PUBLIC "-//W3C//DTD SVG 20010904//EN"
 "http://www.w3.org/TR/2001/REC-SVG-20010904/DTD/svg10.dtd">
<svg version="1.0" xmlns="http://www.w3.org/2000/svg"
 width="666.000000pt" height="375.000000pt" viewBox="0 0 666.000000 375.000000"
 preserveAspectRatio="xMidYMid meet">

<g transform="translate(0.000000,375.000000) scale(0.100000,-0.100000)"
fill="#000000" stroke="none">
<path d="M3145 3469 c-71 -22 -175 -54 -230 -71 -225 -67 -317 -101 -358 -132
-123 -94 -342 -394 -453 -620 -72 -148 -134 -320 -134 -369 l1 -32 39 45 40
45 0 -116 c0 -120 7 -179 20 -179 5 0 11 22 15 48 9 70 22 84 28 31 14 -118
38 -283 42 -287 12 -12 20 15 30 101 l11 92 22 -47 c20 -46 31 -56 45 -41 11
11 56 12 63 2 3 -5 -1 -23 -10 -39 -8 -16 -17 -43 -21 -60 -6 -27 -4 -30 20
-30 25 0 26 -2 20 -32 -7 -36 -28 -57 -160 -163 -48 -38 -122 -104 -165 -145
l-77 -75 -7 -70 c-4 -38 -22 -133 -41 -209 -21 -85 -35 -164 -35 -202 0 -59
-2 -64 -32 -88 -65 -49 -365 -211 -478 -258 -132 -54 -152 -73 -255 -228 -61
-91 -168 -282 -180 -321 -6 -19 46 -19 2230 -19 l2237 0 -6 26 c-4 14 -3 23 1
21 5 -3 9 3 9 13 0 10 -4 16 -10 13 -5 -4 -6 5 -3 19 5 18 1 30 -13 43 -13 11
-18 25 -15 36 4 10 1 27 -5 36 -10 16 -11 15 -7 -5 3 -12 1 -20 -4 -16 -5 3
-9 13 -9 22 -1 21 -28 58 -36 49 -4 -4 -1 -14 7 -23 13 -16 12 -16 -8 -3 -26
16 -29 25 -10 32 9 3 9 7 0 17 -10 11 -17 10 -38 -4 -14 -9 -23 -21 -20 -26 3
-5 0 -12 -6 -16 -8 -4 -9 -3 -5 4 12 19 -3 14 -55 -19 -26 -18 -46 -36 -43
-40 3 -5 -2 -6 -11 -3 -9 4 -22 -1 -31 -12 -9 -11 -12 -13 -8 -5 4 8 -6 5 -22
-7 -44 -32 -177 -82 -202 -75 -17 4 -19 8 -9 17 7 6 53 49 103 96 49 47 110
103 136 124 26 22 45 43 42 48 -3 4 2 8 11 8 13 0 14 4 4 22 -16 30 -124 138
-138 138 -6 0 -11 7 -11 15 0 8 -8 15 -17 15 -28 0 -143 42 -138 50 7 12 -37
-1 -64 -19 -30 -19 -82 -15 -138 10 -23 10 -48 19 -55 19 -7 0 -3 6 9 13 127
71 280 187 266 201 -3 3 -29 -16 -58 -42 -61 -56 -216 -145 -421 -243 -133
-63 -329 -149 -341 -149 -2 0 31 28 74 61 43 34 98 81 123 104 25 23 93 76
152 118 101 73 158 127 158 148 0 6 -4 7 -10 4 -5 -3 -10 0 -10 9 0 8 -6 17
-12 19 -8 3 -6 6 5 6 21 1 21 3 -1 43 -25 45 -44 116 -36 130 5 7 -1 9 -19 6
-16 -3 -24 -1 -21 7 3 8 -15 11 -61 9 -51 -2 -70 2 -89 17 -13 10 -29 19 -34
19 -6 0 -12 4 -14 10 -1 5 -38 15 -80 21 -64 9 -98 8 -200 -6 -68 -9 -148 -15
-178 -13 l-55 3 178 60 c99 32 186 64 194 70 12 9 -7 14 -84 24 -149 20 -222
37 -324 75 -93 35 -94 35 -124 17 -44 -26 -80 -32 -111 -21 l-27 11 59 35 c32
19 69 45 81 56 l23 21 127 -31 c294 -72 384 -75 562 -21 51 16 99 29 106 29
20 0 64 25 88 51 l22 24 -29 15 c-31 16 -89 107 -79 124 13 20 11 56 -3 56 -8
0 -14 5 -14 11 0 5 -4 7 -10 4 -15 -9 -12 -25 4 -25 21 0 12 -36 -19 -79 -21
-30 -22 -37 -10 -41 13 -4 9 -14 -16 -48 -17 -24 -29 -46 -25 -49 3 -3 -2 -18
-11 -34 -11 -19 -30 -31 -59 -38 -51 -13 -64 -14 -46 -2 18 11 93 189 94 222
1 16 4 27 7 25 3 -2 7 14 8 36 0 23 5 43 10 47 10 7 10 7 18 106 3 44 9 96 12
115 5 29 7 32 14 15 9 -23 10 -17 13 60 2 28 -2 53 -8 57 -6 4 -7 10 -3 15 10
10 28 -18 22 -34 -2 -7 0 -13 6 -13 7 0 9 10 5 26 -6 21 -4 25 8 21 8 -3 17 1
20 9 3 8 17 19 31 24 29 11 32 25 9 38 -13 7 -14 11 -4 17 7 4 16 2 21 -6 6
-10 9 -8 9 9 0 13 4 21 9 18 10 -7 8 8 -6 43 -11 28 -20 19 -38 -34 -5 -16
-14 -29 -20 -27 -15 3 -12 27 4 24 10 -2 12 4 7 23 -5 18 -3 24 4 20 15 -9 25
24 11 38 -9 9 -11 7 -5 -8 4 -11 4 -17 0 -13 -12 11 -14 43 -3 50 16 10 -8 51
-67 115 -127 139 -341 244 -548 268 l-57 6 -21 -47 c-16 -37 -90 -147 -137
-203 -1 -2 -5 -2 -8 1 -3 3 11 25 31 49 39 46 94 152 94 181 0 12 -15 20 -55
29 -153 34 51 45 255 13 114 -18 259 -80 363 -155 38 -28 66 -45 62 -37 -3 7
1 4 9 -7 9 -10 29 -25 44 -32 15 -7 18 -11 8 -8 -19 6 -19 5 -1 -15 10 -11 20
-18 23 -15 3 2 10 -2 17 -11 9 -14 11 -12 10 12 -2 42 -23 87 -37 78 -6 -4 -8
-3 -5 4 9 14 -3 43 -14 36 -5 -3 -9 0 -9 6 0 19 -49 117 -65 130 -8 7 -15 17
-15 22 0 5 -5 14 -10 21 -39 46 -50 61 -50 68 0 5 -13 15 -30 24 -16 9 -30 21
-30 28 0 8 4 7 10 -3 5 -8 10 -10 10 -5 0 6 -33 38 -73 72 -39 34 -115 98
-167 142 l-95 81 -5 -163 c-3 -93 -10 -170 -16 -181 -11 -19 -12 -19 -17 0 -9
27 -34 180 -53 314 l-15 115 -80 79 c-50 49 -78 84 -75 93 3 8 2 12 -3 8 -5
-3 -11 0 -13 6 -7 20 -123 51 -208 55 -78 4 -96 1 -215 -37z m1015 -915 c19
-50 41 -210 47 -349 5 -133 4 -145 -21 -229 -24 -77 -74 -204 -136 -341 -10
-22 -25 -57 -33 -77 -15 -37 -29 -44 -60 -32 -12 4 -7 20 24 80 21 40 52 120
70 176 17 57 39 126 49 153 33 93 42 190 39 423 -2 122 -1 222 4 222 4 0 12
-12 17 -26z m220 -249 c0 -5 -4 -4 -9 4 -5 8 -14 10 -22 5 -11 -6 -11 -4 0 10
11 13 16 14 22 4 5 -7 9 -17 9 -23z m-373 -32 c13 -63 10 -353 -5 -394 -11
-31 -22 -41 -73 -64 -170 -76 -330 -81 -382 -11 -38 51 -76 152 -83 219 -5 54
-3 71 18 118 14 30 28 64 32 76 5 15 18 24 39 28 18 3 108 17 202 31 93 14
172 28 174 30 2 2 19 4 37 4 30 0 34 -3 41 -37z m-1122 -13 c251 -17 232 -10
271 -97 39 -86 42 -126 14 -214 -29 -92 -70 -161 -105 -178 -51 -25 -167 -19
-262 13 -116 39 -145 61 -161 121 -14 56 -13 340 2 363 6 10 21 12 50 8 22 -3
109 -11 191 -16z m1462 -22 c-3 -8 -6 -5 -6 6 -1 11 2 17 5 13 3 -3 4 -12 1
-19z m16 -80 c5 6 12 12 18 12 14 0 11 -19 -5 -35 -12 -12 -15 -12 -20 1 -3 9
-12 14 -20 11 -9 -4 -12 2 -9 21 9 51 17 57 22 17 4 -25 9 -35 14 -27z m-375
-652 c7 -8 -42 -116 -53 -116 -17 0 -75 21 -75 27 0 3 12 28 27 55 26 48 28
49 62 43 20 -4 37 -8 39 -9z m488 -675 c0 -10 -6 -17 -12 -14 -6 2 -29 -3 -50
-12 -120 -50 -656 -169 -733 -163 l-36 3 32 18 c18 9 49 17 70 17 66 0 423 94
458 120 19 15 173 46 235 49 29 1 36 -3 36 -18z m374 -261 c13 -9 13 -10 0 -9
-8 0 -24 4 -35 9 l-20 9 20 0 c11 0 27 -4 35 -9z m225 -192 c-11 -6 -23 -16
-27 -22 -5 -8 -8 -7 -8 1 0 12 28 32 45 32 6 0 1 -5 -10 -11z m5 -28 c0 -5 -5
-10 -11 -10 -5 0 -7 5 -4 10 3 6 8 10 11 10 2 0 4 -4 4 -10z m229 -188 c0 -14
-2 -13 -9 3 -5 12 -9 14 -9 6 -1 -8 -4 -12 -7 -8 -9 9 6 28 17 22 5 -4 9 -14
8 -23z"/>
<path d="M3616 2150 c-16 -18 -26 -80 -13 -80 6 0 6 -5 0 -12 -6 -8 -7 -25 -1
-45 8 -32 19 -37 66 -36 6 1 12 -2 12 -6 0 -4 26 -4 58 -1 31 4 62 5 69 3 17
-6 53 15 53 32 0 8 -13 15 -32 17 -25 2 -33 8 -33 23 0 15 8 21 33 23 36 4 40
17 17 62 -19 37 -37 42 -136 38 -56 -2 -84 -8 -93 -18z"/>
<path d="M2768 2165 c-17 -10 -31 -29 -37 -53 -14 -48 -14 -139 -1 -147 6 -4
59 -9 118 -11 94 -4 110 -3 131 14 l24 19 -32 11 c-17 6 -31 15 -31 19 0 18
25 33 52 33 26 0 28 3 28 43 0 68 -22 81 -134 85 -67 1 -98 -2 -118 -13z"/>
<path d="M4564 2231 c3 -18 6 -41 7 -50 1 -9 5 0 9 19 7 27 5 39 -7 50 -14 14
-15 12 -9 -19z"/>
<path d="M4729 1214 c-6 -16 -17 -47 -25 -68 -8 -22 -27 -64 -44 -93 -16 -30
-22 -49 -14 -42 32 27 113 213 99 227 -2 3 -10 -8 -16 -24z"/>
<path d="M4740 919 c-24 -16 -39 -29 -33 -29 17 0 83 41 83 51 0 11 3 13 -50
-22z"/>
<path d="M5065 480 c-13 -6 -15 -9 -5 -9 8 0 22 4 30 9 18 12 2 12 -25 0z"/>
<path d="M5108 475 c-3 -6 0 -15 7 -22 10 -10 14 -9 19 3 3 8 2 13 -3 9 -5 -3
-11 0 -13 7 -3 7 -7 8 -10 3z"/>
<path d="M5126 414 c-4 -10 -2 -22 3 -27 7 -7 13 -5 17 7 4 10 2 22 -3 27 -7
7 -13 5 -17 -7z"/>
<path d="M4850 95 c-14 -8 -20 -14 -14 -15 5 0 19 7 30 15 24 18 16 19 -16 0z"/>
<path d="M5381 14 c0 -11 3 -14 6 -6 3 7 2 16 -1 19 -3 4 -6 -2 -5 -13z"/>
</g>
</svg>
